<svg width="1000" height="357" viewBox="0 0 1000 357" fill="none" xmlns="http://www.w3.org/2000/svg">
<path d="M401.85 212.885V340.8C401.85 345.421 398.115 349.157 393.496 349.157H341.263C336.644 349.157 332.909 345.421 332.909 340.8V223.503C332.909 185.011 315.662 167.313 287.801 167.313C256.844 167.313 235.174 187.223 235.174 229.698V340.8C235.174 345.421 231.44 349.157 226.821 349.157H174.587C169.968 349.157 166.234 345.421 166.234 340.8V223.503C166.234 185.011 149.871 167.313 121.125 167.313C90.6103 167.313 68.9405 187.223 68.9405 229.698V340.8C68.9405 345.421 65.206 349.157 60.587 349.157H8.35343C3.73447 349.157 0 345.421 0 340.8V119.48C0 114.859 3.73447 111.123 8.35343 111.123H57.4913C62.1103 111.123 65.8448 114.859 65.8448 119.48C65.8448 126.363 73.6577 130.296 79.1612 126.215C95.7698 113.925 116.948 107.583 140.584 107.583C170.214 107.583 195.913 117.809 213.062 138.604C216.207 142.438 222.005 142.487 225.494 138.948C244.658 119.185 272.715 107.583 304.655 107.583C361.262 107.583 401.948 140.324 401.948 212.885H401.85Z" fill="#8F76FF"/>
<path d="M444.962 38.4925C444.962 16.8128 462.209 0 487.859 0C513.509 0 530.757 15.9279 530.757 37.1652C530.757 60.1722 513.509 76.985 487.859 76.985C462.209 76.985 444.962 60.1722 444.962 38.4925ZM466.877 110.168H508.841C516.31 110.168 522.354 116.215 522.354 123.687V334.634C522.354 342.106 516.31 348.153 508.841 348.153H466.877C459.408 348.153 453.365 342.106 453.365 334.634V123.687C453.365 116.215 459.408 110.168 466.877 110.168Z" fill="#8F76FF"/>
<path d="M721.43 116.644V161.38C721.43 166.542 717.106 170.671 711.946 170.376C709.981 170.278 708.064 170.18 705.951 170.18C667.919 170.18 642.711 190.974 642.711 236.546V339.881C642.711 344.846 638.682 348.877 633.719 348.877H582.763C577.8 348.877 573.771 344.846 573.771 339.881V119.889C573.771 114.923 577.8 110.892 582.763 110.892H630.623C635.586 110.892 639.615 114.923 639.615 119.889V120.134C639.615 127.754 648.313 131.785 654.308 127.115C669.098 115.612 688.508 109.024 711.75 107.599C716.958 107.304 721.43 111.384 721.43 116.595V116.644Z" fill="#8F76FF"/>
<path d="M738.635 234.443C738.635 162.768 793.915 111.887 869.539 111.887C945.162 111.887 1000 162.768 1000 234.443C1000 306.119 945.162 357 869.539 357C793.915 357 738.635 306.119 738.635 234.443ZM930.126 234.443C930.126 193.296 904.033 168.519 869.539 168.519C835.044 168.519 808.509 193.296 808.509 234.443C808.509 275.59 835.044 300.367 869.539 300.367C904.033 300.367 930.126 275.59 930.126 234.443Z" fill="#8F76FF"/>
</svg>
